<svg width="8" height="5" viewBox="0 0 8 5" fill="none" xmlns="http://www.w3.org/2000/svg">
<path d="M4.42024 4.20492C4.33827 4.28699 4.22707 4.33315 4.11107 4.33325L3.88941 4.33325C3.77366 4.33191 3.66291 4.28593 3.58024 4.20492L0.587739 1.20658C0.532523 1.15182 0.501465 1.07727 0.501465 0.999502C0.501465 0.921732 0.532523 0.847183 0.587739 0.792418L1.00191 0.378252C1.05567 0.323381 1.12925 0.29246 1.20607 0.29246C1.28289 0.29246 1.35648 0.323381 1.41024 0.378252L4.00024 2.97409L6.59024 0.378251C6.645 0.323035 6.71955 0.291977 6.79732 0.291977C6.87509 0.291977 6.94964 0.323035 7.00441 0.378251L7.41274 0.792418C7.46795 0.847183 7.49901 0.921732 7.49901 0.999501C7.49901 1.07727 7.46795 1.15182 7.41274 1.20658L4.42024 4.20492Z" fill="white"/>
</svg>
