<svg width="21" height="29" viewBox="0 0 21 29" fill="none" xmlns="http://www.w3.org/2000/svg">
<path d="M5.36385 22.5123L4.9607 22.798L5.36385 22.5123C2.09722 17.9036 0.5 13.9673 0.5 10.7926C0.5 5.10463 4.99924 0.5 10.4999 0.5C16.0005 0.5 20.4999 5.10464 20.5 10.7926C20.5 14.1477 18.8984 18.1398 15.6343 22.6732C13.2471 25.9885 10.8925 28.2891 10.8029 28.3763L10.8028 28.3763C10.7173 28.4595 10.609 28.5 10.5001 28.5C10.3879 28.5 10.2764 28.457 10.1902 28.3694C10.0977 28.2753 7.74768 25.8757 5.36385 22.5123ZM4.86665 10.2687C4.86665 13.3983 7.3887 15.9519 10.4999 15.9519C13.6111 15.9519 16.1332 13.3983 16.1332 10.2687C16.1332 7.13908 13.6111 4.58543 10.4999 4.58543C7.38876 4.58543 4.86665 7.13908 4.86665 10.2687Z" fill="#3C4F6B" fill-opacity="0.5" stroke="#3C4F6B"/>
</svg>
