<svg width="6" height="4" viewBox="0 0 6 4" fill="none" xmlns="http://www.w3.org/2000/svg">
<path d="M3.36016 3.89008C3.2899 3.96043 3.19458 3.99999 3.09516 4.00008H2.90515C2.80595 3.99893 2.71102 3.95952 2.64016 3.89008L0.075155 1.32008C0.0278269 1.27314 0.00120544 1.20924 0.00120544 1.14258C0.00120544 1.07592 0.0278269 1.01202 0.075155 0.965082L0.430155 0.610082C0.476237 0.56305 0.53931 0.536547 0.605155 0.536547C0.671 0.536547 0.734073 0.56305 0.780155 0.610082L3.00015 2.83508L5.22016 0.610082C5.2671 0.562754 5.331 0.536133 5.39766 0.536133C5.46431 0.536133 5.52821 0.562754 5.57516 0.610082L5.92516 0.965082C5.97248 1.01202 5.9991 1.07592 5.9991 1.14258C5.9991 1.20924 5.97248 1.27314 5.92516 1.32008L3.36016 3.89008Z" fill="white"/>
</svg>
